<svg id="Calque_1" data-name="Calque 1" xmlns="http://www.w3.org/2000/svg" viewBox="227.62 149.65 2045.47 2200.58"><defs><style>.cls-1{fill:#582456;}</style></defs><path class="cls-1" d="M394.24,545.62c-38.22-91.63-30.69-176.77-20-227A82.38,82.38,0,1,0,361.84,316C350.78,368,343.1,455.86,382.41,550.28c28,67.29,74.79,127.28,139.75,179.58,7.52.15,14.92.51,22.15,1.15C473.66,677.54,423.41,615.58,394.24,545.62Z"/><path class="cls-1" d="M338.7,663.06c-17.6-18.8-28.37-35.44-35-49.33a53.44,53.44,0,1,0-12.22,4c6.86,14.83,18,32.31,35.94,51.86q28,30.48,70.4,60.07h23.28C382.72,704.68,356.5,682.08,338.7,663.06Z"/><path class="cls-1" d="M1554.21,906.47A78.17,78.17,0,0,0,1449.52,989a1385.15,1385.15,0,0,1-239.18,10.77C1109,995.37,978.28,977,859.83,921.39c1.2-2,2.39-4.07,3.44-6.22A89.49,89.49,0,0,0,869,900a800.56,800.56,0,0,0,88.22,28.27c61.12,15.62,145.92,28.47,223.53,9.83A37.41,37.41,0,1,0,1177,926c-110.83,26.34-240.05-13.51-305.37-38.71.29-2.23.56-4.46.67-6.69,150.24,16.18,267.91-17,342.39-49.36a594.31,594.31,0,0,0,86-45.9,61.34,61.34,0,1,0-9.08-9.37A581.28,581.28,0,0,1,1209,819.83c-73.22,31.76-189.08,64.25-337.12,47.95-.2-2.09-.43-4.17-.77-6.24,140.45-42.41,252.08-119,324.22-179.55a1043.52,1043.52,0,0,0,99.9-95.74,60.89,60.89,0,0,0,89.5-23.67,61.31,61.31,0,1,0-99.22,15.47,1032.87,1032.87,0,0,1-98.64,94.45c-71,59.55-180.77,134.87-318.71,176.67a89.44,89.44,0,0,0-11.62-23.91c36.31-23.44,68-50.79,93-75.25a804.61,804.61,0,0,0,75.07-85.09,28.82,28.82,0,1,0-10.38-7.44C986.57,693.66,926,765.4,848.55,815.28a88.66,88.66,0,0,0-14.75-12.74C865.22,712.64,940,619.76,1003,552.68c44.36-47.24,88.14-87.48,119.41-114.82a62.17,62.17,0,1,0-6-8c-31.5,27.51-75.73,68.14-120.57,115.88C908.17,639.06,851.06,723.31,825,797.2c-.89-.48-1.71-1-2.62-1.46a89,89,0,0,0-20.39-7c1.65-112.25,63.15-226.64,95.9-279.73a37.62,37.62,0,1,0-11.16-6.23,802.38,802.38,0,0,0-48.85,91.71c-23,51.24-47.1,121.38-48.53,192.39a89.1,89.1,0,0,0-17.9.53c-35-117.22-11.66-246,17.82-340.59,19.49-62.53,43.68-117.37,63-156.64a72.69,72.69,0,1,0-11.41-5.59c-19.57,39.72-44,95.08-63.66,158.18C754.08,517,741.86,587.39,740.94,651.88c-.71,49.63,5.33,95.84,17.95,138.21-1.71.48-3.44.94-5.12,1.53-62.56-89.73-81.06-179.79-84.13-246.6A497.76,497.76,0,0,1,675,446.6a54,54,0,1,0-16.6-5c1.35.66,2.73,1.22,4.12,1.76a511.77,511.77,0,0,0-5.59,101.69c3.06,68.29,21.78,160.16,85,251.77A89,89,0,0,0,727,806.55c-110.7-112.28-156.67-235-175.62-321.89a652.18,652.18,0,0,1-12.51-82.3,61.88,61.88,0,1,0-13-1.48,670.11,670.11,0,0,0,12.94,85.95c19.27,88.68,66,213.85,178.82,328.36q-2.12,2.29-4.07,4.79c1.45,1.8,3,3.54,4.37,5.4Q761.63,882.61,779.15,965a87.41,87.41,0,0,0,9.44,0c16.8,56.77,46.07,108.67,72.4,147.65a804.19,804.19,0,0,0,70.19,89.15,28.82,28.82,0,1,0,9.18-8.86c-35.09-38.75-108.5-128.33-139.12-229.66a88.63,88.63,0,0,0,13.35-3.88c55.92,108.45,136,168.6,199.5,201.22q4,2.06,8,4a475.93,475.93,0,0,0,114.35,39.07,37.58,37.58,0,1,0,5.12-14.29c-.41.67-.75,1.35-1.11,2a465.76,465.76,0,0,1-120.54-42.13c-61.65-31.65-139.3-90-193.73-195.22a88.57,88.57,0,0,0,15.77-11,797,797,0,0,0,56,60.67c34.43,33.51,81.55,72.49,135.9,99.12a336.19,336.19,0,0,0,53,20.81,37.47,37.47,0,1,0,2.78-12.48C985.7,1080.36,897.25,989.42,850.93,933.8c.51-.59,1-1.16,1.51-1.77a737.84,737.84,0,0,0,106,40.53c75.5,22.51,160.06,36,251.33,39.94a1399.29,1399.29,0,0,0,242.25-11,78.27,78.27,0,1,0,102.18-95Z"/><path class="cls-1" d="M1735.91,532.64a72.63,72.63,0,1,0-33.26-97.19A72.63,72.63,0,0,0,1735.91,532.64Z"/><path class="cls-1" d="M1712.12,779.26a61.32,61.32,0,1,0-28.07-82A61.31,61.31,0,0,0,1712.12,779.26Z"/><path class="cls-1" d="M2238.75,278.38a61.31,61.31,0,1,0,28.08,82A61.32,61.32,0,0,0,2238.75,278.38Z"/><path class="cls-1" d="M1542.8,689a29.08,29.08,0,1,0-13.32-38.91A29.08,29.08,0,0,0,1542.8,689Z"/><path class="cls-1" d="M1984.49,565.71a29.08,29.08,0,1,0,13.31,38.91A29.08,29.08,0,0,0,1984.49,565.71Z"/><path class="cls-1" d="M2042.67,368.65A29.08,29.08,0,1,0,2056,407.56,29.08,29.08,0,0,0,2042.67,368.65Z"/><path class="cls-1" d="M713.62,820q-64.05-79.5-169.31-89,69.6,52.68,165.42,94.24C711,823.44,712.27,821.68,713.62,820Z"/><path class="cls-1" d="M759.39,962c-107.87,244.13-189.11,500.35-245.81,761.9-44.32,204.46-76.8,413.85-95,624.64l96.88-1.11q123.72,0,198.31-95.67T791.06,1993V1087.07q0-66.78-11.91-122.11a88.77,88.77,0,0,1-19.73-3.05Z"/><path class="cls-1" d="M703,836.62c.07-.13.15-.25.21-.38Q682,827,662.1,817.33,581.94,778,522.16,729.86c-2.25,0-4.45-.16-6.72-.16h-94.3c58.56,38.14,145.53,81.93,274.8,127.41A89.38,89.38,0,0,1,703,836.62Z"/><path class="cls-1" d="M732.38,949.33l0-.09A88.56,88.56,0,0,1,716.26,935c-68,41.76-152.5,55.86-215.41,60a804.28,804.28,0,0,1-113.47-.83,28.81,28.81,0,1,1,1.39-12.69c61.93,4.73,213.51,8.19,319.83-56.6a89.56,89.56,0,0,1-11.47-25.39C551,916.68,454.39,903,396.85,887c-25.69-7.13-45.81-15.21-61.14-22.72-3.29-1.61-6.34-3.19-9.19-4.74a37.53,37.53,0,1,1,8.86-15,36.88,36.88,0,0,1-1.66,4.33c15.58,8.33,37.79,18,67.93,26.24C457.8,890.54,552,903.64,694.59,887a88.56,88.56,0,0,1-.52-17q-105-36.72-184.33-75.57Q445,762.69,397.86,729.7h-130c-7.54,0-11.3,3.86-11.3,11.3V2339c0,7.44,3.76,11.21,11.3,11.21l67.41-.77c25.35-208.89,64.51-415.94,115-617.72C517.92,1462,611.12,1198.61,732.38,949.33Z"/></svg>