<svg id="Calque_1" data-name="Calque 1" xmlns="http://www.w3.org/2000/svg" viewBox="0 0 488.35 595.28"><defs><style>.cls-1{fill:#1d1d1b;}</style></defs><path class="cls-1" d="M288,148a13,13,0,1,0-6-17.4A13,13,0,0,0,288,148Z"/><path class="cls-1" d="M283.74,192.18a11,11,0,1,0-5-14.69A11,11,0,0,0,283.74,192.18Z"/><path class="cls-1" d="M378.06,102.47a11,11,0,1,0,5,14.7A11,11,0,0,0,378.06,102.47Z"/><path class="cls-1" d="M106.05,227.19a68.86,68.86,0,0,1-3.58-40.65,14,14,0,1,0-4.36-1.31,13.7,13.7,0,0,0,2.14.83,71.15,71.15,0,0,0,3.68,42c5,12.05,13.4,22.8,25,32.16,1.35,0,2.68.09,4,.21C120.28,250.82,111.28,239.73,106.05,227.19Z"/><path class="cls-1" d="M96.11,248.23a35,35,0,0,1-6.27-8.84,9.68,9.68,0,1,0-7,.46,9.71,9.71,0,0,0,4.8.27,36.77,36.77,0,0,0,6.43,9.29,77.19,77.19,0,0,0,12.61,10.75h4.17A79.43,79.43,0,0,1,96.11,248.23Z"/><path class="cls-1" d="M313.81,291.82a14,14,0,0,0-18.75,14.79,247.47,247.47,0,0,1-42.84,1.93c-18.16-.79-41.56-4.09-62.78-14,.22-.37.43-.73.62-1.12a16.22,16.22,0,0,0,1-2.71,143.54,143.54,0,0,0,15.8,5.06c10.94,2.8,26.13,5.1,40,1.76a6.68,6.68,0,1,0-.68-2.17c-19.85,4.72-43-2.42-54.69-6.93,0-.4.1-.8.12-1.2,26.91,2.9,48-3,61.32-8.84a106.17,106.17,0,0,0,15.4-8.22,10.6,10.6,0,0,0,2.19,1.43,11,11,0,1,0-3.82-3.11A104.45,104.45,0,0,1,252,276.31c-13.12,5.69-33.87,11.5-60.38,8.58,0-.37-.08-.74-.14-1.11,25.16-7.6,45.15-21.32,58.07-32.16a188.33,188.33,0,0,0,17.89-17.15,11.22,11.22,0,0,0,1.34.79,11,11,0,1,0-3.08-2.26A182.54,182.54,0,0,1,248,249.92c-12.71,10.67-32.37,24.16-57.08,31.64a15.71,15.71,0,0,0-2.08-4.28,108,108,0,0,0,16.66-13.48A143.64,143.64,0,0,0,219,248.56a5.15,5.15,0,1,0-1.86-1.33c-5,6.48-15.81,19.33-29.69,28.26a15.68,15.68,0,0,0-2.64-2.28c5.63-16.1,19-32.74,30.31-44.75,7.94-8.46,15.78-15.67,21.39-20.57a11.12,11.12,0,1,0-1.08-1.43c-5.64,4.93-13.57,12.21-21.6,20.76-15.7,16.71-25.93,31.8-30.59,45l-.47-.26a16.26,16.26,0,0,0-3.65-1.25c.29-20.11,11.31-40.59,17.17-50.1a6.76,6.76,0,1,0-2-1.12A143.29,143.29,0,0,0,185.51,236c-4.12,9.18-8.43,21.74-8.69,34.46a15.54,15.54,0,0,0-3.2.09c-6.27-21-2.09-44.05,3.19-61a197.22,197.22,0,0,1,11.29-28.06,13,13,0,1,0-2-1,201.27,201.27,0,0,0-11.4,28.33c-4.15,13.31-6.34,25.91-6.5,37.46A82.23,82.23,0,0,0,171.36,271c-.3.09-.61.17-.91.27a83.37,83.37,0,0,1-15.07-44.16,89.17,89.17,0,0,1,1-17.63,9.67,9.67,0,1,0-3-.9c.25.12.49.22.74.32a92,92,0,0,0-1,18.21,85.71,85.71,0,0,0,15.22,45.1,15.4,15.4,0,0,0-2.66,1.74A116.84,116.84,0,0,1,132,201.54a11,11,0,1,0-4.74-1.11,11.59,11.59,0,0,0,2.42.84A119.51,119.51,0,0,0,164,275.48c-.26.27-.5.56-.73.85l.78,1q7.82,10.24,11,25a15.88,15.88,0,0,0,1.69,0c3,10.16,8.26,19.46,13,26.44a144.54,144.54,0,0,0,12.57,16,5.17,5.17,0,1,0,1.65-1.59c-6.29-6.94-19.44-23-24.92-41.13a15.55,15.55,0,0,0,2.39-.7,82.19,82.19,0,0,0,35.73,36l1.43.72a85.65,85.65,0,0,0,20.48,7,6.74,6.74,0,1,0,.92-2.56l-.2.36a83.59,83.59,0,0,1-21.59-7.54,80,80,0,0,1-34.7-35,15.26,15.26,0,0,0,2.83-2,140.78,140.78,0,0,0,10,10.87c6.16,6,14.6,13,24.34,17.75a59.18,59.18,0,0,0,9.49,3.73,6.74,6.74,0,1,0,.5-2.23C212,323,196.15,306.68,187.85,296.72l.27-.32a131.44,131.44,0,0,0,19,7.26,186.41,186.41,0,0,0,45,7.15,250.73,250.73,0,0,0,43.39-2,14,14,0,1,0,18.3-17Z"/><path class="cls-1" d="M404.41,46.3a14,14,0,1,0,6.42,18.77A14,14,0,0,0,404.41,46.3Z"/><path class="cls-1" d="M253.41,176a5.21,5.21,0,1,0-2.38-7A5.2,5.2,0,0,0,253.41,176Z"/><path class="cls-1" d="M332.52,153.93a5.21,5.21,0,1,0,2.39,7A5.22,5.22,0,0,0,332.52,153.93Z"/><path class="cls-1" d="M342.94,118.64a5.21,5.21,0,1,0,2.39,7A5.2,5.2,0,0,0,342.94,118.64Z"/><path class="cls-1" d="M400.53,93.51a5.21,5.21,0,1,0,2.39,7A5.21,5.21,0,0,0,400.53,93.51Z"/><path class="cls-1" d="M163.26,276.33q-11.47-14.24-30.33-15.93a143.06,143.06,0,0,0,29.63,16.88C162.78,277,163,276.64,163.26,276.33Z"/><path class="cls-1" d="M171.45,301.76a709.5,709.5,0,0,0-44,136.47,890.71,890.71,0,0,0-17,111.87l17.35-.2q22.15,0,35.52-17.13t13.85-46.35V324.17A104.31,104.31,0,0,0,175,302.3a15.34,15.34,0,0,1-3.53-.55Z"/><path class="cls-1" d="M161.35,279.31l0-.06c-2.53-1.1-5-2.23-7.36-3.39A133.45,133.45,0,0,1,129,260.19c-.4,0-.79,0-1.2,0H110.87c10.49,6.84,26.07,14.68,49.22,22.82A16,16,0,0,1,161.35,279.31Z"/><path class="cls-1" d="M166.62,299.5v0a16,16,0,0,1-2.89-2.54c-12.17,7.48-27.31,10-38.58,10.74a142.68,142.68,0,0,1-20.32-.15,5.19,5.19,0,1,1,.24-2.27c11.1.85,38.24,1.47,57.29-10.14a16,16,0,0,1-2.06-4.55c-26.17,3.08-43.47.63-53.78-2.23a64.26,64.26,0,0,1-11-4.07c-.59-.29-1.13-.57-1.65-.85a6.72,6.72,0,1,1,1.59-2.68,5.12,5.12,0,0,1-.3.77,58.42,58.42,0,0,0,12.17,4.7c10.06,2.76,26.93,5.11,52.47,2.13a16.35,16.35,0,0,1-.1-3,300.33,300.33,0,0,1-33-13.54,149.89,149.89,0,0,1-20-11.59H83.42a1.8,1.8,0,0,0-2,2V548.4a1.78,1.78,0,0,0,2,2l12.07-.14A905.14,905.14,0,0,1,116.1,439.64,721.38,721.38,0,0,1,166.62,299.5Z"/></svg>