<svg id="Calque_1" data-name="Calque 1" xmlns="http://www.w3.org/2000/svg" viewBox="0 0 1031.22 595.28"><defs><style>.cls-1,.cls-2,.cls-3{fill:#913b8e;}.cls-2{font-size:150.64px;}.cls-2,.cls-3{font-family:BarlowCondensed-Regular, Barlow Condensed;}.cls-3{font-size:47.13px;letter-spacing:0.02em;}.cls-4{letter-spacing:0.05em;}.cls-5{letter-spacing:0.05em;}.cls-6{letter-spacing:0.05em;}</style></defs><path class="cls-1" d="M406.45,161.55A11.61,11.61,0,1,0,401.13,146,11.61,11.61,0,0,0,406.45,161.55Z"/><path class="cls-1" d="M402.64,201a9.81,9.81,0,1,0-4.49-13.12A9.82,9.82,0,0,0,402.64,201Z"/><path class="cls-1" d="M486.87,120.89a9.81,9.81,0,1,0,4.5,13.12A9.8,9.8,0,0,0,486.87,120.89Z"/><path class="cls-1" d="M244,232.26a61.44,61.44,0,0,1-3.2-36.3,12.51,12.51,0,1,0-3.9-1.17,11.87,11.87,0,0,0,1.92.74A63.5,63.5,0,0,0,242.08,233c4.48,10.76,12,20.36,22.35,28.72,1.2,0,2.39.08,3.54.19C256.67,253.36,248.64,243.45,244,232.26Z"/><path class="cls-1" d="M235.09,251.05a31.22,31.22,0,0,1-5.59-7.89,8.65,8.65,0,1,0-6.24.41,8.57,8.57,0,0,0,4.28.23,32.78,32.78,0,0,0,5.75,8.3,68.79,68.79,0,0,0,11.26,9.61h3.72A71.68,71.68,0,0,1,235.09,251.05Z"/><path class="cls-1" d="M429.5,290a12.52,12.52,0,0,0-16.75,13.2,220.73,220.73,0,0,1-38.25,1.73c-16.22-.71-37.12-3.65-56.06-12.54.19-.33.38-.65.55-1a13.93,13.93,0,0,0,.91-2.42A129.39,129.39,0,0,0,334,293.47c9.78,2.5,23.34,4.55,35.76,1.57a6,6,0,1,0-.61-1.94c-17.73,4.22-38.39-2.16-48.84-6.19,0-.35.09-.71.11-1.07,24,2.59,42.85-2.71,54.76-7.89a95.13,95.13,0,0,0,13.75-7.34,9.62,9.62,0,0,0,1.95,1.27,9.81,9.81,0,1,0-3.41-2.77,92.8,92.8,0,0,1-13.19,7c-11.71,5.08-30.24,10.28-53.92,7.67,0-.33-.07-.67-.12-1,22.46-6.78,40.32-19,51.85-28.71a166.49,166.49,0,0,0,16-15.32,9.47,9.47,0,0,0,1.2.71,9.84,9.84,0,1,0-2.75-2,166,166,0,0,1-15.78,15.11c-11.36,9.52-28.91,21.57-51,28.26a14.45,14.45,0,0,0-1.86-3.83,96.1,96.1,0,0,0,14.88-12,129.47,129.47,0,0,0,12-13.6,4.62,4.62,0,1,0-1.66-1.19c-4.43,5.78-14.11,17.26-26.51,25.23a14.35,14.35,0,0,0-2.35-2c5-14.38,17-29.24,27.06-40,7.1-7.55,14.1-14,19.1-18.36a9.84,9.84,0,0,0,16.84-4,9.85,9.85,0,1,0-17.81,2.76c-5,4.4-12.11,10.9-19.28,18.53-14,14.93-23.15,28.4-27.32,40.22-.14-.07-.27-.16-.42-.23a14.31,14.31,0,0,0-3.26-1.12c.26-17.95,10.1-36.25,15.34-44.74a6,6,0,1,0-1.79-1,128.63,128.63,0,0,0-7.81,14.67c-3.69,8.2-7.53,19.42-7.76,30.77a14.36,14.36,0,0,0-2.86.09c-5.61-18.75-1.87-39.34,2.85-54.48a174.83,174.83,0,0,1,10.08-25.05,11.6,11.6,0,1,0-1.83-.89,178.4,178.4,0,0,0-10.18,25.29,119,119,0,0,0-5.81,33.45,73.63,73.63,0,0,0,2.87,22.11c-.27.07-.55.15-.82.24A74.53,74.53,0,0,1,288,232.17a79.42,79.42,0,0,1,.85-15.74,8.64,8.64,0,1,0-2.65-.8l.66.28a81.59,81.59,0,0,0-.9,16.26,76.49,76.49,0,0,0,13.6,40.27A14.35,14.35,0,0,0,297.2,274a104.38,104.38,0,0,1-30.09-64.65,9.79,9.79,0,1,0-4.24-1,9.24,9.24,0,0,0,2.16.75,106.7,106.7,0,0,0,30.67,66.27c-.22.25-.44.5-.65.77.24.28.47.56.7.86a55.17,55.17,0,0,1,9.78,22.32,12.68,12.68,0,0,0,1.51,0A88.45,88.45,0,0,0,318.62,323a127.94,127.94,0,0,0,11.23,14.25,4.63,4.63,0,1,0,1.47-1.41c-5.61-6.2-17.36-20.53-22.25-36.73a14.45,14.45,0,0,0,2.13-.63,73.48,73.48,0,0,0,31.91,32.19l1.28.64a76.22,76.22,0,0,0,18.29,6.25,6,6,0,1,0,.82-2.29c-.07.11-.12.22-.18.33A74.89,74.89,0,0,1,344,328.81a71.47,71.47,0,0,1-31-31.22,14.68,14.68,0,0,0,2.53-1.76,127.45,127.45,0,0,0,8.95,9.7c5.51,5.36,13.05,11.6,21.74,15.86a53.27,53.27,0,0,0,8.48,3.32,5.94,5.94,0,0,0,1,3.67,6,6,0,1,0-.57-5.66c-16.62-4.93-30.77-19.47-38.18-28.37.09-.09.17-.19.25-.28a117.31,117.31,0,0,0,16.95,6.48,166.8,166.8,0,0,0,40.2,6.39,223.6,223.6,0,0,0,38.75-1.76A12.52,12.52,0,1,0,429.5,290Z"/><path class="cls-1" d="M510.41,70.73a12.52,12.52,0,1,0,5.73,16.75A12.52,12.52,0,0,0,510.41,70.73Z"/><path class="cls-1" d="M375.56,186.56a4.65,4.65,0,1,0-2.13-6.22A4.66,4.66,0,0,0,375.56,186.56Z"/><path class="cls-1" d="M446.21,166.84a4.66,4.66,0,1,0,2.13,6.23A4.66,4.66,0,0,0,446.21,166.84Z"/><path class="cls-1" d="M455.51,135.32a4.65,4.65,0,1,0,2.13,6.23A4.66,4.66,0,0,0,455.51,135.32Z"/><path class="cls-1" d="M506.94,112.88a4.65,4.65,0,1,0,2.13,6.23A4.66,4.66,0,0,0,506.94,112.88Z"/><path class="cls-1" d="M295.05,276.15Q284.81,263.43,268,261.92A128.19,128.19,0,0,0,294.43,277C294.63,276.7,294.84,276.42,295.05,276.15Z"/><path class="cls-1" d="M302.37,298.86a633.81,633.81,0,0,0-39.31,121.86,797.08,797.08,0,0,0-15.2,99.9l15.49-.17q19.8,0,31.72-15.31t12.37-41.39V318.86a93,93,0,0,0-1.91-19.53,13.66,13.66,0,0,1-3.15-.48Z"/><path class="cls-1" d="M293.35,278.81l0-.06c-2.25-1-4.45-2-6.57-3a119.11,119.11,0,0,1-22.38-14l-1.08,0H248.27c9.37,6.1,23.28,13.1,44,20.38A14.13,14.13,0,0,1,293.35,278.81Z"/><path class="cls-1" d="M298.05,296.83h0a14,14,0,0,1-2.58-2.27c-10.88,6.68-24.4,8.93-34.46,9.59a129.37,129.37,0,0,1-18.15-.13,4.59,4.59,0,1,1,.23-2c9.9.75,34.14,1.31,51.15-9.06a14.15,14.15,0,0,1-1.83-4.06c-23.38,2.75-38.83.56-48-2a56.57,56.57,0,0,1-9.78-3.64c-.53-.26-1-.51-1.47-.76a6,6,0,1,1,1.42-2.39,7.07,7.07,0,0,1-.27.69,51.87,51.87,0,0,0,10.87,4.2c9,2.46,24,4.56,46.85,1.89a14.48,14.48,0,0,1-.08-2.72,271,271,0,0,1-29.49-12.08,136.63,136.63,0,0,1-17.89-10.35H223.76a1.6,1.6,0,0,0-1.81,1.8V519.1a1.6,1.6,0,0,0,1.81,1.8l10.78-.13A809.76,809.76,0,0,1,252.94,422,644.06,644.06,0,0,1,298.05,296.83Z"/><text class="cls-2" transform="translate(321.58 456.29)">andelions</text><circle class="cls-1" cx="615.97" cy="356.68" r="10.47" transform="translate(30.92 762.09) rotate(-64.79)"/><path class="cls-1" d="M687.88,341.26a8.84,8.84,0,1,0-11.82,4A8.84,8.84,0,0,0,687.88,341.26Z"/><circle class="cls-1" cx="700.07" cy="294.37" r="11.29" transform="translate(-37.01 477.28) rotate(-36.74)"/><path class="cls-1" d="M646.43,372a4.19,4.19,0,1,0-5.61,1.91A4.19,4.19,0,0,0,646.43,372Z"/><path class="cls-1" d="M657.49,348.05a4.19,4.19,0,1,0-5.61,1.92A4.19,4.19,0,0,0,657.49,348.05Z"/><path class="cls-1" d="M703.83,327.83a4.19,4.19,0,1,0-5.6,1.92A4.19,4.19,0,0,0,703.83,327.83Z"/><text class="cls-3" transform="translate(331.14 515.98)">F<tspan class="cls-4" x="20.17" y="0">or b</tspan><tspan class="cls-5" x="92.29" y="0">e</tspan><tspan class="cls-6" x="113.64" y="0">tter communication</tspan></text></svg>