<svg id="Calque_1" data-name="Calque 1" xmlns="http://www.w3.org/2000/svg" viewBox="195.2 125.62 2484.7 830.68"><defs><style>.cls-1,.cls-2{fill:#582456;}.cls-2{font-size:615.04px;font-family:BarlowCondensed-Regular, Barlow Condensed;letter-spacing:-0.02em;}</style></defs><path class="cls-1" d="M258.25,275.2c-14.44-34.61-11.6-66.78-7.56-85.75a29.52,29.52,0,1,0-9.21-2.75,30.16,30.16,0,0,0,4.53,1.74c-4.18,19.68-7.08,52.86,7.77,88.53,10.58,25.42,28.25,48.08,52.79,67.84q4.28.07,8.37.43C288.25,325,269.27,301.64,258.25,275.2Z"/><path class="cls-1" d="M237.27,319.57a74.22,74.22,0,0,1-13.21-18.63,20.26,20.26,0,1,0-4.62,1.52A77.28,77.28,0,0,0,233,322.05a161,161,0,0,0,26.6,22.7h8.79C253.9,335.29,244,326.76,237.27,319.57Z"/><path class="cls-1" d="M696.47,411.53a29.54,29.54,0,0,0-39.56,31.19,524.34,524.34,0,0,1-90.35,4.07c-38.31-1.68-87.67-8.63-132.42-29.63.45-.76.9-1.53,1.3-2.34a33.56,33.56,0,0,0,2.16-5.73,305.34,305.34,0,0,0,33.33,10.68c23.09,5.9,55.13,10.75,84.45,3.71a14.15,14.15,0,1,0-1.43-4.57c-41.87,9.95-90.69-5.11-115.37-14.62.11-.85.21-1.69.26-2.53,56.75,6.11,101.21-6.41,129.34-18.65a224.23,224.23,0,0,0,32.48-17.34,23.18,23.18,0,1,0-3.43-3.54,221.25,221.25,0,0,1-31.16,16.57c-27.67,12-71.43,24.27-127.36,18.11-.08-.79-.17-1.57-.29-2.35,53.06-16,95.23-45,122.48-67.84a393.48,393.48,0,0,0,37.74-36.17,23.13,23.13,0,1,0-3.67-3.09,391,391,0,0,1-37.27,35.68c-26.82,22.5-68.29,50.95-120.4,66.74a33.43,33.43,0,0,0-4.39-9,228,228,0,0,0,35.15-28.43,302.23,302.23,0,0,0,28.35-32.15,10.88,10.88,0,1,0-3.92-2.81c-10.47,13.67-33.34,40.77-62.61,59.62a33,33,0,0,0-5.57-4.81c11.87-34,40.13-69.06,63.93-94.4C505,260,521.53,244.82,533.34,234.5a23.55,23.55,0,1,0-2.27-3c-11.9,10.39-28.61,25.74-45.55,43.77-33.12,35.26-54.69,67.08-64.53,95-.33-.18-.65-.39-1-.55a33.78,33.78,0,0,0-7.7-2.65c.62-42.4,23.85-85.62,36.23-105.67a14.23,14.23,0,1,0-4.22-2.36,304.51,304.51,0,0,0-18.46,34.65c-8.7,19.36-17.79,45.85-18.33,72.68a33.89,33.89,0,0,0-6.76.2c-13.23-44.28-4.4-92.92,6.73-128.67A417.78,417.78,0,0,1,431.3,178.7a27.45,27.45,0,1,0-4.31-2.11,422.31,422.31,0,0,0-24.05,59.76c-8.75,28.06-13.37,54.64-13.71,79A173.48,173.48,0,0,0,396,367.56c-.65.18-1.3.36-1.94.58A176,176,0,0,1,362.29,275a188.52,188.52,0,0,1,2-37.18,20.41,20.41,0,1,0-6.27-1.89c.51.25,1,.46,1.56.66A193.2,193.2,0,0,0,357.48,275,180.61,180.61,0,0,0,389.6,370.1a34.05,34.05,0,0,0-5.63,3.68A246.43,246.43,0,0,1,312.9,221.09a23.8,23.8,0,1,0-4.9-.57A252,252,0,0,0,380.44,377c-.53.58-1,1.19-1.54,1.81.55.68,1.12,1.34,1.65,2q16.5,21.63,23.11,52.73a30.37,30.37,0,0,0,3.57,0c6.34,21.45,17.4,41.06,27.35,55.78a303.94,303.94,0,0,0,26.51,33.68,10.89,10.89,0,1,0,3.47-3.35c-13.25-14.63-41-48.48-52.55-86.76a33,33,0,0,0,5-1.46c21.12,41,51.37,63.69,75.37,76,1,.52,2,1,3,1.52a180.51,180.51,0,0,0,43.2,14.76,14.21,14.21,0,1,0,1.94-5.4c-.16.25-.28.51-.42.77a175.85,175.85,0,0,1-45.54-15.92c-23.29-11.95-52.62-34-73.19-73.75a33.32,33.32,0,0,0,6-4.15,300.77,300.77,0,0,0,21.15,22.92c13,12.66,30.81,27.39,51.34,37.45a127.32,127.32,0,0,0,20,7.86,14.12,14.12,0,1,0,1.05-4.72c-39.26-11.63-72.67-46-90.17-67l.57-.67a277,277,0,0,0,40,15.31c28.52,8.51,60.46,13.59,95,15.09a528,528,0,0,0,91.51-4.15,29.57,29.57,0,1,0,38.61-35.9Z"/><path class="cls-1" d="M765.11,270.3a27.44,27.44,0,1,0-12.57-36.71A27.44,27.44,0,0,0,765.11,270.3Z"/><path class="cls-1" d="M756.12,363.47a23.16,23.16,0,1,0-10.61-31A23.16,23.16,0,0,0,756.12,363.47Z"/><path class="cls-1" d="M955.07,174.25a23.16,23.16,0,1,0,10.61,31A23.16,23.16,0,0,0,955.07,174.25Z"/><path class="cls-1" d="M692.15,329.37a11,11,0,1,0-5-14.7A11,11,0,0,0,692.15,329.37Z"/><path class="cls-1" d="M859,282.79a11,11,0,1,0,5,14.7A11,11,0,0,0,859,282.79Z"/><path class="cls-1" d="M881,208.35a11,11,0,1,0,5,14.7A11,11,0,0,0,881,208.35Z"/><path class="cls-1" d="M378.9,378.85q-24.19-30-64-33.61,26.3,19.9,62.5,35.61C377.91,380.16,378.4,379.5,378.9,378.85Z"/><path class="cls-1" d="M396.2,432.49c-40.76,92.23-71.45,189-92.86,287.84a1878.91,1878.91,0,0,0-35.9,236l36.59-.42q46.76,0,74.92-36.14T408.16,822V479.75a221.07,221.07,0,0,0-4.5-46.13,32.89,32.89,0,0,1-7.45-1.15Z"/><path class="cls-1" d="M374.88,385.14A1,1,0,0,1,375,385c-5.32-2.32-10.51-4.69-15.52-7.15a281.52,281.52,0,0,1-52.87-33c-.84,0-1.68-.06-2.54-.06H268.41c22.12,14.41,55,30.95,103.82,48.13A33.14,33.14,0,0,1,374.88,385.14Z"/><path class="cls-1" d="M386,427.72l0,0a33.56,33.56,0,0,1-6.11-5.38c-25.67,15.78-57.61,21.11-81.38,22.66a302.77,302.77,0,0,1-42.86-.31,10.9,10.9,0,1,1,.52-4.79c23.4,1.78,80.66,3.09,120.83-21.39a34,34,0,0,1-4.34-9.59c-55.2,6.49-91.7,1.32-113.43-4.72a133.1,133.1,0,0,1-23.1-8.58c-1.24-.61-2.4-1.21-3.47-1.79a14.19,14.19,0,1,1,3.34-5.66,14.59,14.59,0,0,1-.62,1.64,123.23,123.23,0,0,0,25.66,9.91c21.21,5.82,56.81,10.77,110.66,4.48a34.47,34.47,0,0,1-.19-6.43q-39.67-13.86-69.64-28.55a319.63,319.63,0,0,1-42.26-24.44H210.51c-2.85,0-4.27,1.46-4.27,4.27v603.7c0,2.81,1.42,4.23,4.27,4.23l25.47-.29A1908.67,1908.67,0,0,1,279.44,723.3C305,621.4,340.18,521.89,386,427.72Z"/><text class="cls-2" transform="translate(432.8 945.79)">andelions</text></svg>